<?xml version="1.0" encoding="utf-8"?>
<!-- Generator: Adobe Illustrator 24.3.0, SVG Export Plug-In . SVG Version: 6.00 Build 0)  -->
<svg version="1.1" id="Layer_1" xmlns="http://www.w3.org/2000/svg" xmlns:xlink="http://www.w3.org/1999/xlink" x="0px" y="0px"
	 viewBox="0 0 73.8 82.3" style="enable-background:new 0 0 73.8 82.3;" xml:space="preserve">
<g>
	<path d="M12.1,49.1c-0.7-0.8-1.6-1.3-2.6-1.6c1-0.2,1.8-0.7,2.4-1.4s0.9-1.6,0.9-2.8c0-1.4-0.5-2.5-1.4-3.3s-2.3-1.2-4.2-1.2H0
		v18.1h7.2c1.9,0,3.4-0.4,4.4-1.3s1.5-2.1,1.5-3.6C13.1,50.8,12.8,49.9,12.1,49.1z M2.9,41.1h3.5c1.1,0,1.9,0.2,2.4,0.7
		s0.8,1.1,0.8,2c0,0.8-0.3,1.5-0.8,2s-1.3,0.7-2.3,0.7H2.9V41.1z M9.2,53.7c-0.6,0.5-1.5,0.8-2.6,0.8H2.9v-5.8h3.7
		c1.1,0,2,0.3,2.6,0.8c0.6,0.5,0.9,1.2,0.9,2.1C10.1,52.5,9.8,53.2,9.2,53.7z"/>
	<path d="M15.8,42.7v14.1h2.9v-7.1c0-1.4,0.4-2.5,1.2-3.1c0.8-0.6,1.8-0.9,3.1-0.9h0.9v-3.2c-1.2,0-2.2,0.3-3.1,0.8
		c-0.9,0.5-1.6,1.3-2,2.2v-2.8H15.8z"/>
	<path d="M36.9,53.5v3.3h2.9V42.7h-2.9V46c-0.4-1-1-1.9-1.9-2.5c-0.9-0.6-2-1-3.3-1c-1.2,0-2.3,0.3-3.3,0.9c-1,0.6-1.7,1.4-2.3,2.5
		c-0.5,1.1-0.8,2.4-0.8,3.8c0,1.5,0.3,2.8,0.8,3.9s1.3,1.9,2.3,2.5c1,0.6,2.1,0.9,3.3,0.9c1.3,0,2.4-0.3,3.3-1
		C35.9,55.4,36.5,54.6,36.9,53.5z M34.8,53.8c-0.7,0.4-1.4,0.6-2.2,0.6c-1.3,0-2.3-0.4-3.1-1.2s-1.2-2-1.2-3.4s0.4-2.6,1.2-3.4
		c0.8-0.8,1.8-1.2,3.1-1.2c0.8,0,1.5,0.2,2.2,0.6c0.7,0.4,1.2,0.9,1.5,1.6s0.6,1.5,0.6,2.5c0,0.9-0.2,1.8-0.6,2.5
		C36,52.9,35.5,53.5,34.8,53.8z"/>
	<path d="M51.2,42.5c-1.2,0-2.2,0.3-3.1,0.9c-0.9,0.6-1.5,1.4-1.9,2.5v-3.1h-2.9v14.1h2.9v-7.5c0-1.4,0.3-2.5,1-3.3
		c0.7-0.7,1.6-1.1,2.8-1.1c1.1,0,2,0.3,2.7,1c0.7,0.7,1,1.7,1,2.9v7.9h2.9v-8.2c0-2-0.5-3.5-1.5-4.5C54.2,43,52.9,42.5,51.2,42.5z"
		/>
	<path d="M70.9,46c-0.4-1-1-1.9-1.9-2.5c-0.9-0.6-2-1-3.3-1c-1.2,0-2.3,0.3-3.3,0.9c-1,0.6-1.7,1.4-2.3,2.5s-0.8,2.4-0.8,3.8
		c0,1.5,0.3,2.8,0.8,3.9s1.3,1.9,2.3,2.5c1,0.6,2.1,0.9,3.3,0.9c1.3,0,2.4-0.3,3.3-1c0.9-0.6,1.5-1.5,1.9-2.5v3.3h2.9V37.9h-2.9V46z
		 M70.4,52.2c-0.4,0.7-0.9,1.2-1.5,1.6c-0.6,0.4-1.4,0.6-2.2,0.6c-1.3,0-2.3-0.4-3.1-1.2c-0.8-0.8-1.2-2-1.2-3.4
		c0-1.5,0.4-2.6,1.2-3.4c0.8-0.8,1.8-1.2,3.1-1.2c0.8,0,1.6,0.2,2.2,0.6s1.2,0.9,1.5,1.6c0.4,0.7,0.6,1.5,0.6,2.5
		C70.9,50.7,70.7,51.5,70.4,52.2z"/>
	<path d="M7.3,66.6c-0.9-0.5-2-0.7-3.3-0.7H0v11.9h4c1.3,0,2.4-0.2,3.3-0.7c0.9-0.5,1.6-1.2,2.1-2.1c0.5-0.9,0.7-1.9,0.7-3.1
		s-0.2-2.2-0.7-3.1C9,67.8,8.3,67.1,7.3,66.6z M7.1,74.9C6.3,75.6,5.2,76,3.8,76H1.9v-8.4h1.9c1.4,0,2.5,0.4,3.3,1.1
		c0.8,0.7,1.1,1.8,1.1,3.1C8.2,73.1,7.9,74.1,7.1,74.9z"/>
	<path d="M18.6,68.9c-0.7-0.4-1.5-0.6-2.4-0.6c-0.9,0-1.7,0.2-2.4,0.6c-0.7,0.4-1.2,0.9-1.6,1.6c-0.4,0.7-0.6,1.6-0.6,2.5
		c0,1,0.2,1.8,0.6,2.5c0.4,0.7,0.9,1.3,1.6,1.7c0.7,0.4,1.5,0.6,2.4,0.6c0.8,0,1.5-0.1,2.1-0.4c0.6-0.3,1.1-0.7,1.5-1.2
		c0.4-0.5,0.6-1.1,0.8-1.7h-2c-0.1,0.5-0.4,1-0.8,1.3c-0.4,0.3-1,0.5-1.6,0.5c-0.7,0-1.3-0.2-1.8-0.7c-0.5-0.5-0.8-1.2-0.8-2.1h7.1
		c0-0.2,0.1-0.5,0.1-0.8c0-0.8-0.2-1.5-0.5-2.2C19.8,69.8,19.3,69.3,18.6,68.9z M13.5,72.6c0.1-0.9,0.3-1.6,0.8-2
		c0.5-0.5,1.1-0.7,1.9-0.7c0.5,0,0.9,0.1,1.3,0.3c0.4,0.2,0.7,0.5,0.9,0.9c0.2,0.4,0.3,0.9,0.3,1.5H13.5z"/>
	<path d="M27.9,73c-0.4-0.2-1-0.3-1.7-0.5c-0.5-0.1-0.9-0.2-1.2-0.3c-0.3-0.1-0.5-0.2-0.7-0.4C24.1,71.5,24,71.3,24,71
		c0-0.4,0.1-0.7,0.4-0.9c0.3-0.2,0.6-0.3,1.1-0.3c0.6,0,1,0.1,1.4,0.5s0.6,0.7,0.6,1.2h1.8c-0.1-0.9-0.5-1.7-1.2-2.2
		c-0.6-0.6-1.5-0.8-2.6-0.8c-1,0-1.9,0.2-2.4,0.7c-0.6,0.5-0.9,1.1-0.9,1.9c0,0.6,0.1,1.1,0.5,1.4c0.3,0.3,0.6,0.6,1.1,0.8
		c0.4,0.2,1,0.3,1.6,0.5c0.5,0.1,0.9,0.2,1.2,0.3s0.5,0.2,0.8,0.4s0.3,0.4,0.3,0.8c0,0.4-0.1,0.7-0.4,0.9c-0.3,0.2-0.6,0.4-1.1,0.4
		c-0.6,0-1.1-0.2-1.5-0.5c-0.4-0.3-0.6-0.7-0.7-1.2h-1.9c0.1,1,0.6,1.7,1.3,2.2c0.7,0.5,1.6,0.8,2.8,0.8c1,0,1.8-0.2,2.4-0.7
		c0.6-0.5,0.9-1.1,0.9-1.9c0-0.6-0.1-1.1-0.5-1.5C28.7,73.4,28.4,73.1,27.9,73z"/>
	<path d="M32.4,64.7c-0.4,0-0.7,0.1-0.9,0.3c-0.2,0.2-0.3,0.5-0.3,0.8c0,0.3,0.1,0.6,0.3,0.8c0.2,0.2,0.5,0.3,0.9,0.3
		s0.7-0.1,0.9-0.3c0.2-0.2,0.3-0.5,0.3-0.8s-0.1-0.6-0.3-0.8S32.7,64.7,32.4,64.7z"/>
	<rect x="31.4" y="68.5" width="1.9" height="9.2"/>
	<path d="M42.8,70.6c-0.2-0.7-0.7-1.2-1.3-1.6c-0.6-0.4-1.3-0.6-2.2-0.6c-0.8,0-1.5,0.2-2.2,0.6c-0.6,0.4-1.1,0.9-1.5,1.6
		c-0.4,0.7-0.5,1.6-0.5,2.5c0,1,0.2,1.8,0.5,2.5s0.8,1.3,1.5,1.6s1.3,0.6,2.2,0.6c0.8,0,1.6-0.2,2.2-0.6s1-1,1.3-1.6v2.2
		c0,0.9-0.2,1.6-0.7,2.1s-1.1,0.7-1.9,0.7c-0.7,0-1.3-0.1-1.7-0.5c-0.5-0.3-0.8-0.7-0.9-1.3h-1.9c0.2,1.1,0.7,1.9,1.5,2.5
		s1.8,0.9,3.2,0.9c0.9,0,1.7-0.2,2.3-0.6c0.7-0.4,1.2-0.9,1.5-1.6c0.3-0.7,0.5-1.4,0.5-2.3v-9.3h-1.9C42.8,68.5,42.8,70.6,42.8,70.6
		z M42.4,74.7c-0.2,0.5-0.6,0.8-1,1.1c-0.4,0.2-0.9,0.4-1.4,0.4c-0.8,0-1.5-0.3-2-0.8c-0.5-0.5-0.8-1.3-0.8-2.2s0.3-1.7,0.8-2.2
		c0.5-0.5,1.2-0.8,2-0.8c0.5,0,1,0.1,1.4,0.4c0.4,0.2,0.8,0.6,1,1.1c0.2,0.5,0.4,1,0.4,1.6C42.8,73.7,42.6,74.2,42.4,74.7z"/>
	<path d="M52.1,68.3c-0.8,0-1.4,0.2-2,0.6c-0.6,0.4-1,0.9-1.2,1.6v-2H47v9.2h1.9v-4.9c0-0.9,0.2-1.6,0.7-2.1
		c0.5-0.5,1.1-0.7,1.8-0.7c0.7,0,1.3,0.2,1.8,0.7s0.6,1.1,0.6,1.9v5.2h1.9v-5.4c0-1.3-0.3-2.3-1-3C54.1,68.7,53.2,68.3,52.1,68.3z"
		/>
	<path d="M64.4,68.9c-0.7-0.4-1.5-0.6-2.4-0.6c-0.9,0-1.7,0.2-2.4,0.6c-0.7,0.4-1.2,0.9-1.6,1.6c-0.4,0.7-0.6,1.6-0.6,2.5
		c0,1,0.2,1.8,0.6,2.5c0.4,0.7,0.9,1.3,1.6,1.7c0.7,0.4,1.5,0.6,2.4,0.6c0.8,0,1.5-0.1,2.1-0.4c0.6-0.3,1.1-0.7,1.5-1.2
		s0.6-1.1,0.8-1.7h-2c-0.1,0.5-0.4,1-0.8,1.3c-0.4,0.3-1,0.5-1.6,0.5c-0.7,0-1.3-0.2-1.8-0.7c-0.5-0.5-0.8-1.2-0.8-2.1h7.1
		c0.1-0.2,0.1-0.5,0.1-0.8c0-0.8-0.2-1.5-0.6-2.2C65.6,69.8,65.1,69.3,64.4,68.9z M59.4,72.6c0-0.9,0.3-1.6,0.8-2
		c0.5-0.5,1.1-0.7,1.9-0.7c0.5,0,0.9,0.1,1.3,0.3c0.4,0.2,0.7,0.5,0.9,0.9c0.2,0.4,0.3,0.9,0.3,1.5H59.4z"/>
	<path d="M70.3,70.3v-1.8h-1.9v9.2h1.9V73c0-0.9,0.2-1.6,0.8-2c0.5-0.4,1.2-0.6,2-0.6h0.6v-2.1c-0.8,0-1.4,0.2-2,0.5
		C71.1,69.2,70.6,69.7,70.3,70.3z"/>
	<path d="M53,16.6c-0.7-0.4-1.6-0.6-2.5-0.6c-1.5,0-2.7,0.5-3.6,1.4s-1.3,2.2-1.3,3.9c0,1.6,0.5,2.9,1.3,3.9
		c0.9,0.9,2.1,1.4,3.6,1.4c0.9,0,1.8-0.2,2.5-0.6c0.7-0.4,1.3-1,1.8-1.9c0.4-0.8,0.6-1.7,0.6-2.8c0-1-0.2-2-0.6-2.8
		C54.3,17.7,53.8,17.1,53,16.6z"/>
	<path d="M71.7,28.5v-0.2v-8c0-1.4-0.4-2.5-1.1-3.3c-0.7-0.8-1.7-1.1-2.9-1.1c-1.3,0-2.4,0.4-3.1,1.2c-0.8,0.8-1.2,2.1-1.2,3.8v7.4
		v0.2h-0.2h-1.8H61v-0.2V14.3v-0.2h0.2h1.8h0.2v0.2v2.2c0.4-0.7,0.9-1.2,1.5-1.7c1-0.6,2.1-1,3.3-1c1.7,0,3.1,0.5,4.1,1.6
		c0.7,0.7,1.1,1.6,1.3,2.6V0H0v22.9h1.8H2v0.2c0,1,0.2,1.9,0.7,2.5c0.4,0.6,1.1,0.9,2.1,0.9c0.9,0,1.6-0.2,1.9-0.7
		c0.4-0.5,0.6-1.1,0.6-1.9V10.3V10h0.2h1.8h0.2v0.2v13.6c0,1.4-0.4,2.6-1.3,3.4s-2,1.3-3.5,1.3c-1.6,0-2.9-0.5-3.8-1.5
		c-0.5-0.6-0.9-1.3-1.1-2.1v7h32.5l1.7-4l-5.8-13.6l-0.1-0.4h0.4h2h0.2l0.1,0.1l4.6,11l4.2-11l0.1-0.2h0.2h2h0.4l-0.1,0.3l-7,17.7
		h38.6v-3.6h-1.8H71.7z M26.7,14.3v13.9v0.2h-0.2h-1.8h-0.3v-0.2v-2.6c-0.4,0.7-1,1.4-1.6,1.9c-1,0.8-2.3,1.1-3.7,1.1
		c-1.3,0-2.5-0.3-3.5-0.9c-1-0.6-1.8-1.5-2.4-2.6c-0.6-1.1-0.9-2.4-0.9-3.9c0-1.5,0.3-2.8,0.9-3.9c0.6-1.1,1.4-2,2.4-2.6
		s2.2-0.9,3.5-0.9c1.5,0,2.7,0.4,3.7,1.1c0.7,0.5,1.2,1.1,1.6,1.9v-2.6v-0.2h0.2h1.8h0.2L26.7,14.3L26.7,14.3z M57.7,14.3v13.9v0.2
		h-0.2h-1.8h-0.2v-0.2v-2.6c-0.4,0.7-1,1.4-1.7,1.9c-1,0.8-2.3,1.1-3.7,1.1c-1.3,0-2.5-0.3-3.5-0.9c-1-0.6-1.8-1.5-2.4-2.6
		c-0.6-1.1-0.8-2.4-0.8-3.9c0-1.5,0.3-2.8,0.8-3.9c0.6-1.1,1.4-2,2.4-2.6s2.2-0.9,3.5-0.9c1.5,0,2.7,0.4,3.7,1.1
		c0.7,0.5,1.2,1.1,1.7,1.9v-2.6v-0.2h0.2h1.8h0.2V14.3z"/>
	<path d="M22,16.6c-0.7-0.4-1.6-0.6-2.5-0.6c-1.5,0-2.7,0.5-3.6,1.4c-0.9,0.9-1.3,2.2-1.3,3.9c0,1.6,0.4,2.9,1.3,3.9
		c0.9,0.9,2.1,1.4,3.6,1.4c0.9,0,1.8-0.2,2.5-0.6c0.7-0.4,1.3-1,1.8-1.9c0.4-0.8,0.6-1.7,0.6-2.8c0-1-0.2-2-0.6-2.8
		C23.3,17.7,22.7,17.1,22,16.6z"/>
</g>
</svg>
