<svg xmlns="http://www.w3.org/2000/svg" xml:space="preserve" style="enable-background:new 0 0 73.8 82.3" viewBox="0 0 73.8 82.3"><path d="M12.1 49.1c-.7-.8-1.6-1.3-2.6-1.6 1-.2 1.8-.7 2.4-1.4s.9-1.6.9-2.8c0-1.4-.5-2.5-1.4-3.3s-2.3-1.2-4.2-1.2H0v18.1h7.2c1.9 0 3.4-.4 4.4-1.3s1.5-2.1 1.5-3.6c0-1.2-.3-2.1-1-2.9zm-9.2-8h3.5c1.1 0 1.9.2 2.4.7s.8 1.1.8 2c0 .8-.3 1.5-.8 2s-1.3.7-2.3.7H2.9v-5.4zm6.3 12.6c-.6.5-1.5.8-2.6.8H2.9v-5.8h3.7c1.1 0 2 .3 2.6.8.6.5.9 1.2.9 2.1 0 .9-.3 1.6-.9 2.1zM15.8 42.7v14.1h2.9v-7.1c0-1.4.4-2.5 1.2-3.1.8-.6 1.8-.9 3.1-.9h.9v-3.2c-1.2 0-2.2.3-3.1.8-.9.5-1.6 1.3-2 2.2v-2.8h-3zM36.9 53.5v3.3h2.9V42.7h-2.9V46c-.4-1-1-1.9-1.9-2.5-.9-.6-2-1-3.3-1-1.2 0-2.3.3-3.3.9-1 .6-1.7 1.4-2.3 2.5-.5 1.1-.8 2.4-.8 3.8 0 1.5.3 2.8.8 3.9s1.3 1.9 2.3 2.5c1 .6 2.1.9 3.3.9 1.3 0 2.4-.3 3.3-1 .9-.6 1.5-1.4 1.9-2.5zm-2.1.3c-.7.4-1.4.6-2.2.6-1.3 0-2.3-.4-3.1-1.2s-1.2-2-1.2-3.4.4-2.6 1.2-3.4c.8-.8 1.8-1.2 3.1-1.2.8 0 1.5.2 2.2.6.7.4 1.2.9 1.5 1.6s.6 1.5.6 2.5c0 .9-.2 1.8-.6 2.5-.3.5-.8 1.1-1.5 1.4zM51.2 42.5c-1.2 0-2.2.3-3.1.9-.9.6-1.5 1.4-1.9 2.5v-3.1h-2.9v14.1h2.9v-7.5c0-1.4.3-2.5 1-3.3.7-.7 1.6-1.1 2.8-1.1 1.1 0 2 .3 2.7 1 .7.7 1 1.7 1 2.9v7.9h2.9v-8.2c0-2-.5-3.5-1.5-4.5-.9-1.1-2.2-1.6-3.9-1.6zM70.9 46c-.4-1-1-1.9-1.9-2.5-.9-.6-2-1-3.3-1-1.2 0-2.3.3-3.3.9-1 .6-1.7 1.4-2.3 2.5s-.8 2.4-.8 3.8c0 1.5.3 2.8.8 3.9s1.3 1.9 2.3 2.5c1 .6 2.1.9 3.3.9 1.3 0 2.4-.3 3.3-1 .9-.6 1.5-1.5 1.9-2.5v3.3h2.9V37.9h-2.9V46zm-.5 6.2c-.4.7-.9 1.2-1.5 1.6-.6.4-1.4.6-2.2.6-1.3 0-2.3-.4-3.1-1.2-.8-.8-1.2-2-1.2-3.4 0-1.5.4-2.6 1.2-3.4.8-.8 1.8-1.2 3.1-1.2.8 0 1.6.2 2.2.6s1.2.9 1.5 1.6c.4.7.6 1.5.6 2.5-.1.8-.3 1.6-.6 2.3zM7.3 66.6c-.9-.5-2-.7-3.3-.7H0v11.9h4c1.3 0 2.4-.2 3.3-.7.9-.5 1.6-1.2 2.1-2.1.5-.9.7-1.9.7-3.1s-.2-2.2-.7-3.1c-.4-1-1.1-1.7-2.1-2.2zm-.2 8.3c-.8.7-1.9 1.1-3.3 1.1H1.9v-8.4h1.9c1.4 0 2.5.4 3.3 1.1.8.7 1.1 1.8 1.1 3.1s-.3 2.3-1.1 3.1zM18.6 68.9c-.7-.4-1.5-.6-2.4-.6-.9 0-1.7.2-2.4.6-.7.4-1.2.9-1.6 1.6-.4.7-.6 1.6-.6 2.5 0 1 .2 1.8.6 2.5.4.7.9 1.3 1.6 1.7.7.4 1.5.6 2.4.6.8 0 1.5-.1 2.1-.4.6-.3 1.1-.7 1.5-1.2.4-.5.6-1.1.8-1.7h-2c-.1.5-.4 1-.8 1.3-.4.3-1 .5-1.6.5-.7 0-1.3-.2-1.8-.7-.5-.5-.8-1.2-.8-2.1h7.1c0-.2.1-.5.1-.8 0-.8-.2-1.5-.5-2.2-.5-.7-1-1.2-1.7-1.6zm-5.1 3.7c.1-.9.3-1.6.8-2 .5-.5 1.1-.7 1.9-.7.5 0 .9.1 1.3.3.4.2.7.5.9.9.2.4.3.9.3 1.5h-5.2zM27.9 73c-.4-.2-1-.3-1.7-.5-.5-.1-.9-.2-1.2-.3-.3-.1-.5-.2-.7-.4-.2-.3-.3-.5-.3-.8 0-.4.1-.7.4-.9.3-.2.6-.3 1.1-.3.6 0 1 .1 1.4.5s.6.7.6 1.2h1.8c-.1-.9-.5-1.7-1.2-2.2-.6-.6-1.5-.8-2.6-.8-1 0-1.9.2-2.4.7-.6.5-.9 1.1-.9 1.9 0 .6.1 1.1.5 1.4.3.3.6.6 1.1.8.4.2 1 .3 1.6.5.5.1.9.2 1.2.3s.5.2.8.4.3.4.3.8-.1.7-.4.9c-.3.2-.6.4-1.1.4-.6 0-1.1-.2-1.5-.5-.4-.3-.6-.7-.7-1.2h-1.9c.1 1 .6 1.7 1.3 2.2.7.5 1.6.8 2.8.8 1 0 1.8-.2 2.4-.7.6-.5.9-1.1.9-1.9 0-.6-.1-1.1-.5-1.5-.3-.4-.6-.7-1.1-.8zM32.4 64.7c-.4 0-.7.1-.9.3-.2.2-.3.5-.3.8 0 .3.1.6.3.8.2.2.5.3.9.3s.7-.1.9-.3c.2-.2.3-.5.3-.8s-.1-.6-.3-.8-.6-.3-.9-.3zM31.4 68.5h1.9v9.2h-1.9zM42.8 70.6c-.2-.7-.7-1.2-1.3-1.6-.6-.4-1.3-.6-2.2-.6-.8 0-1.5.2-2.2.6-.6.4-1.1.9-1.5 1.6-.4.7-.5 1.6-.5 2.5 0 1 .2 1.8.5 2.5s.8 1.3 1.5 1.6 1.3.6 2.2.6c.8 0 1.6-.2 2.2-.6s1-1 1.3-1.6v2.2c0 .9-.2 1.6-.7 2.1s-1.1.7-1.9.7c-.7 0-1.3-.1-1.7-.5-.5-.3-.8-.7-.9-1.3h-1.9c.2 1.1.7 1.9 1.5 2.5s1.8.9 3.2.9c.9 0 1.7-.2 2.3-.6.7-.4 1.2-.9 1.5-1.6.3-.7.5-1.4.5-2.3v-9.3h-1.9v2.2zm-.4 4.1c-.2.5-.6.8-1 1.1-.4.2-.9.4-1.4.4-.8 0-1.5-.3-2-.8s-.8-1.3-.8-2.2.3-1.7.8-2.2c.5-.5 1.2-.8 2-.8.5 0 1 .1 1.4.4.4.2.8.6 1 1.1.2.5.4 1 .4 1.6 0 .4-.2.9-.4 1.4zM52.1 68.3c-.8 0-1.4.2-2 .6-.6.4-1 .9-1.2 1.6v-2H47v9.2h1.9v-4.9c0-.9.2-1.6.7-2.1.5-.5 1.1-.7 1.8-.7s1.3.2 1.8.7.6 1.1.6 1.9v5.2h1.9v-5.4c0-1.3-.3-2.3-1-3-.6-.7-1.5-1.1-2.6-1.1zM64.4 68.9c-.7-.4-1.5-.6-2.4-.6-.9 0-1.7.2-2.4.6-.7.4-1.2.9-1.6 1.6-.4.7-.6 1.6-.6 2.5 0 1 .2 1.8.6 2.5.4.7.9 1.3 1.6 1.7.7.4 1.5.6 2.4.6.8 0 1.5-.1 2.1-.4.6-.3 1.1-.7 1.5-1.2s.6-1.1.8-1.7h-2c-.1.5-.4 1-.8 1.3-.4.3-1 .5-1.6.5-.7 0-1.3-.2-1.8-.7-.5-.5-.8-1.2-.8-2.1h7.1c.1-.2.1-.5.1-.8 0-.8-.2-1.5-.6-2.2-.4-.7-.9-1.2-1.6-1.6zm-5 3.7c0-.9.3-1.6.8-2 .5-.5 1.1-.7 1.9-.7.5 0 .9.1 1.3.3.4.2.7.5.9.9.2.4.3.9.3 1.5h-5.2zM70.3 70.3v-1.8h-1.9v9.2h1.9V73c0-.9.2-1.6.8-2 .5-.4 1.2-.6 2-.6h.6v-2.1c-.8 0-1.4.2-2 .5-.6.4-1.1.9-1.4 1.5zM53 16.6c-.7-.4-1.6-.6-2.5-.6-1.5 0-2.7.5-3.6 1.4s-1.3 2.2-1.3 3.9c0 1.6.5 2.9 1.3 3.9.9.9 2.1 1.4 3.6 1.4.9 0 1.8-.2 2.5-.6.7-.4 1.3-1 1.8-1.9.4-.8.6-1.7.6-2.8 0-1-.2-2-.6-2.8-.5-.8-1-1.4-1.8-1.9z"/><path d="M71.7 28.5v-8.2c0-1.4-.4-2.5-1.1-3.3-.7-.8-1.7-1.1-2.9-1.1-1.3 0-2.4.4-3.1 1.2-.8.8-1.2 2.1-1.2 3.8V28.5H61V14.1h2.2V16.5c.4-.7.9-1.2 1.5-1.7 1-.6 2.1-1 3.3-1 1.7 0 3.1.5 4.1 1.6.7.7 1.1 1.6 1.3 2.6V0H0v22.9h2v.2c0 1 .2 1.9.7 2.5.4.6 1.1.9 2.1.9.9 0 1.6-.2 1.9-.7.4-.5.6-1.1.6-1.9V10h2.2V23.8c0 1.4-.4 2.6-1.3 3.4s-2 1.3-3.5 1.3c-1.6 0-2.9-.5-3.8-1.5-.5-.6-.9-1.3-1.1-2.1v7h32.5l1.7-4-5.8-13.6-.1-.4h2.6l.1.1 4.6 11 4.2-11 .1-.2h2.6l-.1.3-7 17.7h38.6v-3.6h-2.1zm-45-14.2v14.1h-2.3V25.6c-.4.7-1 1.4-1.6 1.9-1 .8-2.3 1.1-3.7 1.1-1.3 0-2.5-.3-3.5-.9-1-.6-1.8-1.5-2.4-2.6-.6-1.1-.9-2.4-.9-3.9s.3-2.8.9-3.9c.6-1.1 1.4-2 2.4-2.6s2.2-.9 3.5-.9c1.5 0 2.7.4 3.7 1.1.7.5 1.2 1.1 1.6 1.9V14h2.2l.1.3zm31 0v14.1h-2.2V25.6c-.4.7-1 1.4-1.7 1.9-1 .8-2.3 1.1-3.7 1.1-1.3 0-2.5-.3-3.5-.9-1-.6-1.8-1.5-2.4-2.6-.6-1.1-.8-2.4-.8-3.9s.3-2.8.8-3.9c.6-1.1 1.4-2 2.4-2.6s2.2-.9 3.5-.9c1.5 0 2.7.4 3.7 1.1.7.5 1.2 1.1 1.7 1.9V14h2.2v.3z"/><path d="M22 16.6c-.7-.4-1.6-.6-2.5-.6-1.5 0-2.7.5-3.6 1.4-.9.9-1.3 2.2-1.3 3.9 0 1.6.4 2.9 1.3 3.9.9.9 2.1 1.4 3.6 1.4.9 0 1.8-.2 2.5-.6.7-.4 1.3-1 1.8-1.9.4-.8.6-1.7.6-2.8 0-1-.2-2-.6-2.8-.5-.8-1.1-1.4-1.8-1.9z"/></svg>